<svg xmlns="http://www.w3.org/2000/svg" width="32" height="32" viewBox="0 0 32 32">
  <defs>
    <!-- Main rock shading -->
    <linearGradient id="rockShade" x1="6" y1="6" x2="26" y2="26" gradientUnits="userSpaceOnUse">
      <stop offset="0" stop-color="#9aa1a8"></stop>
      <stop offset="0.5" stop-color="#6f777f"></stop>
      <stop offset="1" stop-color="#4c5258"></stop>
    </linearGradient>

    <!-- Subtle highlight -->
    <radialGradient id="rockHighlight" cx="11" cy="10" r="14" gradientUnits="userSpaceOnUse">
      <stop offset="0" stop-color="#c7cdd3" stop-opacity="0.85"></stop>
      <stop offset="0.55" stop-color="#c7cdd3" stop-opacity="0.15"></stop>
      <stop offset="1" stop-color="#c7cdd3" stop-opacity="0"></stop>
    </radialGradient>
  </defs>

  <!-- Rock body -->
  <path d="M8.5 14.2
           C8.1 11.4 10.4 8.7 13.5 7.8
           C15.1 6.2 18.4 6.0 20.4 7.4
           C23.6 7.9 26.0 10.6 25.6 13.6
           C27.2 16.2 26.2 20.2 23.6 21.9
           C21.8 24.7 17.8 25.7 14.7 24.5
           C11.6 25.0 8.8 23.0 8.0 20.3
           C6.1 18.8 6.5 15.7 8.5 14.2 Z" fill="url(#rockShade)" stroke="#2f3439" stroke-opacity="0.85" stroke-width="1" stroke-linejoin="round"></path>

  <!-- Highlight overlay -->
  <path d="M10.2 14.0
           C10.1 11.8 11.9 9.8 14.1 9.2
           C15.2 8.0 17.6 7.8 19.1 8.7
           C21.4 9.2 23.0 11.2 22.7 13.1
           C22.9 14.8 22.0 16.4 20.5 17.1
           C18.9 17.9 16.8 17.7 15.6 16.6
           C13.9 16.9 11.7 16.2 10.2 14.0 Z" fill="url(#rockHighlight)"></path>

  <!-- Small cracks / texture -->
  <path d="M12.2 18.8 L15.0 17.6 L17.2 18.9" fill="none" stroke="#1f2327" stroke-opacity="0.35" stroke-width="0.9" stroke-linecap="round"></path>
  <path d="M19.6 20.4 L21.8 18.6" fill="none" stroke="#1f2327" stroke-opacity="0.35" stroke-width="0.9" stroke-linecap="round"></path>
  <path d="M11.0 12.9 L12.7 11.7" fill="none" stroke="#1f2327" stroke-opacity="0.28" stroke-width="0.8" stroke-linecap="round"></path>
</svg>
